<svg width="14" height="14" viewBox="0 0 14 14" fill="none" xmlns="http://www.w3.org/2000/svg">
<circle cx="7" cy="7" r="7" fill="#DEE8DB" fill-opacity="0.66"/>
<path d="M5.72191 9.15284L4.1031 7.53403C4.01587 7.44681 3.89757 7.3978 3.77421 7.3978C3.65085 7.3978 3.53254 7.44681 3.44531 7.53403C3.35809 7.62126 3.30908 7.73957 3.30908 7.86293C3.30908 7.92401 3.32111 7.98449 3.34449 8.04092C3.36786 8.09735 3.40212 8.14863 3.44531 8.19182L5.39535 10.1419C5.57729 10.3238 5.87119 10.3238 6.05313 10.1419L10.9889 5.20613C11.0761 5.1189 11.1251 5.00059 11.1251 4.87723C11.1251 4.75388 11.0761 4.63557 10.9889 4.54834C10.9016 4.46111 10.7833 4.41211 10.66 4.41211C10.5366 4.41211 10.4183 4.46111 10.3311 4.54834L5.72191 9.15284Z" fill="#539B5B"/>
</svg>
